<svg width="626.66" height="648.325" xmlns="http://www.w3.org/2000/svg" clip-rule="evenodd">
 <defs>
  <style type="text/css">.fil0 {fill:black;fill-rule:nonzero}</style>
 </defs>
 <g>
  <title>background</title>
  <rect fill="none" id="canvas_background" height="650.325" width="628.66" y="-1" x="-1"/>
 </g>
 <g>
  <title>Layer 1</title>
  <g id="svg_1">
   <path fill="#843b3b" id="svg_2" d="m617.42226,269.11282c0,129.8 -45.8,276.72 -149.64,360.82c-4.15,3.37 -9.19,4.91 -14.14,4.71l-281.46,0.01c-5.04,0 -9.67,-1.77 -13.3,-4.73c-103.87,-84.04 -149.66,-231.04 -149.66,-360.81c0,-11.69 9.48,-21.17 21.17,-21.17l274.3,0l0,-124.85l-271.65,0c-11.69,0 -21.17,-9.48 -21.17,-21.17l0,-72.78c0,-11.69 9.48,-21.17 21.17,-21.17c180.95,0 361.91,0 542.86,0c11.69,0 21.17,9.48 21.17,21.17l0,72.78c0,11.69 -9.48,21.17 -21.17,21.17l-63.51,0l0,124.85l83.86,0c11.69,0 21.17,9.48 21.17,21.17zm-426.5,153.49c11.69,0 21.17,9.48 21.17,21.17c0,11.69 -9.48,21.17 -21.17,21.17l-51.56,0c-11.69,0 -21.17,-9.48 -21.17,-21.17c0,-11.69 9.48,-21.17 21.17,-21.17l51.56,0zm296.35,0c11.69,0 21.17,9.48 21.17,21.17c0,11.69 -9.48,21.17 -21.17,21.17l-51.56,0c-11.69,0 -21.17,-9.48 -21.17,-21.17c0,-11.69 9.48,-21.17 21.17,-21.17l51.56,0zm-173.95,-52.36c40.46,0 73.53,33.07 73.53,73.53c0,40.58 -32.95,73.53 -73.53,73.53c-40.5,0 -73.53,-33.03 -73.53,-73.53c0,-40.58 32.95,-73.53 73.53,-73.53zm-8.63,-289.49l0,-30.44l-250.48,0l0,30.44l250.48,0zm207.7,-30.44l0,30.44l42.34,0l0,-30.44l-42.34,0zm-82.68,0l0,197.63l40.34,0l0,-197.63l-40.34,0zm-82.68,197.63l40.34,0l0,-197.63l-40.34,0l0,197.63zm-222.58,281.23l377.74,0c35.57,-53.28 57.22,-116.28 66.84,-179.36l-511.42,0c9.62,63.08 31.25,126.09 66.84,179.36zm344.25,42.34l-310.77,0c7.04,7.5 14.35,14.5 21.91,20.98l266.97,-0.01c7.55,-6.47 14.85,-13.47 21.89,-20.97zm-415.79,-264.04l520.82,0c0.4,-5.69 0.72,-11.42 0.94,-17.19c-174.23,0 -348.47,0 -522.7,0c0.22,5.77 0.54,11.5 0.94,17.19z" class="fil0"/>
  </g>
 </g>
</svg>