<svg width="697.66" height="778.325" xmlns="http://www.w3.org/2000/svg" clip-rule="evenodd">
 <defs>
  <style type="text/css">.fil0 {fill:black;fill-rule:nonzero}</style>
 </defs>
 <g>
  <title>background</title>
  <rect fill="none" id="canvas_background" height="780.325" width="699.66" y="-1" x="-1"/>
 </g>
 <g>
  <title>Layer 1</title>
  <g id="svg_1">
   <path stroke="#56ffff" fill="#d69b5c" id="svg_2" d="m231.05592,385.74666l46,0l0,-267.47l-248.36,0c-11.69,0 -21.17,-9.48 -21.17,-21.17l0,-66.99c0,-11.69 9.48,-21.17 21.17,-21.17c191.93,0 383.87,0 575.8,0c11.69,0 21.17,9.48 21.17,21.17l0,66.99c0,11.69 -9.48,21.17 -21.17,21.17l-56.78,0l0,267.43l61.87,0c7.78,0 14.57,4.2 18.25,10.45l59.48,86.96c6.57,9.63 4.1,22.78 -5.53,29.35c-9.63,6.57 -22.78,4.1 -29.35,-5.53l-31.2,-45.62c-17.49,97.47 -34.97,194.85 -52.45,292.27c-1.83,10.2 -10.73,17.37 -20.75,17.36l-262.85,0.09c-11.08,0 -20.17,-8.51 -21.09,-19.35l-52.11,-290.37l-31.2,45.62c-6.57,9.63 -19.72,12.1 -29.35,5.53c-9.63,-6.57 -12.1,-19.72 -5.53,-29.35l60.29,-88.15c6.06,-8.9 14.95,-9.66 24.86,-9.22zm37.43,151.75c18.32,-6.82 38.13,-11.64 61.32,-11.85c32.56,-0.31 70.62,8.7 118.46,34.53c29.17,15.76 53.52,19.61 72.92,17.99c16.15,-1.35 29.04,-6.55 38.34,-11.69l18.82,-104.87l-46.61,46.61c-3.86,4.11 -9.35,6.69 -15.44,6.69l-199.38,0c-5.42,-0.01 -10.83,-2.08 -14.96,-6.21l-47.08,-47.08l13.61,75.88zm266.11,167.88c-10.23,1.44 -21.5,1.82 -33.76,0.61c-21.45,-2.13 -45.85,-9.14 -72.74,-24.02c-37.03,-20.48 -66.13,-28.91 -90.46,-30.13c-17.48,-0.87 -32.95,2.02 -47.41,6.77l12.58,70.09l227.61,0l4.18,-23.32zm-257.54,-629.44l0,-24.65l-227.19,0l0,24.65l227.19,0zm270.66,-24.65l0,24.65l35.61,0l0,-24.65l-35.61,0zm-76.11,0l0,334.42l33.77,0l0,-334.42l-33.77,0zm-118.44,334.42l0,-334.42l-33.77,0l0,334.42l33.77,0zm42.34,0l33.76,0l0,-334.42l-33.76,0l0,334.42zm-114.35,42.34l44.51,44.52l181.88,0l44.51,-44.52c-90.3,0 -180.6,0 -270.9,0z" class="fil0"/>
  </g>
 </g>
</svg>