<svg width="65" height="66" xmlns="http://www.w3.org/2000/svg">
 <title>Creator Icon_21</title>

 <g>
  <title>background</title>
  <rect fill="none" id="canvas_background" height="68" width="67" y="-1" x="-1"/>
 </g>
 <g>
  <title>Layer 1</title>
  <path fill="#ce8452" id="svg_1" d="m63.1582,30.6416l-61.9414,0a0.99942,0.99942 0 0 0 -1,1a25.601,25.601 0 0 0 20.5107,25.05567l0,6.2334a0.99942,0.99942 0 0 0 1,1l20.92,0a0.99942,0.99942 0 0 0 1,-1l0,-6.2334a25.601,25.601 0 0 0 20.5107,-25.05567a0.99942,0.99942 0 0 0 -1,-1zm-21.5107,26.5586l0,4.73047l-18.92,0l0,-4.73047l18.92,0zm-3.04785,-2l-12.82426,0a23.58918,23.58918 0 0 1 -23.53809,-22.5586l59.9004,0a23.58918,23.58918 0 0 1 -23.53809,22.5586l0.00004,0z"/>
  <path fill="#ce8452" id="svg_2" d="m48.05762,0.59082a0.99943,0.99943 0 0 0 -1.375,0.332l-15.34864,25.10355a1.00022,1.00022 0 0 0 1.707,1.043l15.34867,-25.10355a1,1 0 0 0 -0.33203,-1.375z"/>
  <path fill="#ce8452" id="svg_3" d="m36.98633,28.09375a0.998,0.998 0 0 0 0.62109,-0.2168l21.28418,-16.918a1.00019,1.00019 0 1 0 -1.2441,-1.56637l-21.28422,16.91792a1,1 0 0 0 0.623,1.7832l0.00005,0.00005z"/>
  <path fill="#ce8452" id="svg_4" d="m43.72363,47.85156a10.426,10.426 0 0 0 10.41407,-10.41406a1,1 0 0 0 -2,0a8.42344,8.42344 0 0 1 -8.41406,8.41406a1,1 0 0 0 0,2l-0.00001,0z"/>
 </g>
</svg>