<svg width="57" height="58" xmlns="http://www.w3.org/2000/svg">
 <title>05 bowl noodle chops food asian</title>

 <g>
  <title>background</title>
  <rect fill="none" id="canvas_background" height="60" width="59" y="-1" x="-1"/>
 </g>
 <g>
  <title>Layer 1</title>
  <path fill="#a8795a" id="svg_1" d="m55.12894,0.70774l-33,0a1,1 0 0 0 -1,1l0,19l-14.56,0a6,6 0 0 0 -3.44,10.92s0,0.08 0,0.08l0,7.25a18.77,18.77 0 0 0 18.75,18.75l10.5,0a18.77,18.77 0 0 0 18.75,-18.75l0,-7.25s0,-0.05 0,-0.08a6,6 0 0 0 -3.44,-10.92l-16.56,0l0,-11.92l21.08,7.73a1,1 0 0 0 0.77,0a1,1 0 0 0 0.52,-0.56l1.38,-3.76a1,1 0 0 0 -0.59,-1.28l-11.4,-4.21l12.24,0a1,1 0 0 0 1,-1l0,-4a1,1 0 0 0 -1,-1zm-32,2l2,0l0,18l-2,0l0,-18zm28.56,24a4,4 0 0 1 -4,4l-4.08,0l0,2l5.52,0l0,6.25a16.77,16.77 0 0 1 -16.75,16.75l-10.5,0a16.77,16.77 0 0 1 -16.75,-16.75l0,-6.25l5.48,0l0,-2l-4,0a4,4 0 1 1 0,-8l41.08,0a4,4 0 0 1 4,4zm-22.56,-6l-2,0l0,-13.39l2,0.73l0,12.66zm23.52,-8.29l-0.69,1.88l-20.69,-7.59l5.81,0l15.57,5.71zm1.48,-7.71l-16.69,0l-0.06,0l0,0l-10.25,0l0,-2l27,0l0,2z"/>
  <text id="svg_3" font-family="'Helvetica Neue', Helvetica, Arial-Unicode, Arial, Sans-serif" font-weight="bold" font-size="5px" fill="#000000" y="84" x="0">from the Noun Project</text>
 </g>
</svg>